<?xml version="1.0" encoding="UTF-8"?>
<svg id="_レイヤー_2" data-name="レイヤー 2" xmlns="http://www.w3.org/2000/svg" viewBox="0 0 122.11 53.07">
  <defs>
    <style>
      .cls-1 {
        fill: #211714;
      }
    </style>
  </defs>
  <g id="_レイヤー_1-2" data-name="レイヤー 1">
    <polygon class="cls-1" points="17.12 29.12 17.12 16.41 12.95 24.68 10.07 24.68 5.88 16.41 5.88 29.12 1.62 29.12 1.62 7.32 5.82 7.32 11.51 19.1 17.18 7.32 21.37 7.32 21.37 29.12 17.12 29.12"/>
    <path class="cls-1" d="M29.51,29.12V7.32h14.36v3.8h-10.1v5.11h8.6v3.8h-8.6v5.3h10.1v3.79h-14.36ZM37.41,5.21h-2.66l1.96-5.21h4.19l-3.49,5.21Z"/>
    <polygon class="cls-1" points="59.42 11.11 59.42 29.12 55.16 29.12 55.16 11.11 49.47 11.11 49.47 7.32 65.11 7.32 65.11 11.11 59.42 11.11"/>
    <rect class="cls-1" x="71.63" y="7.32" width="4.26" height="21.8"/>
    <polygon class="cls-1" points="84.03 29.12 84.03 7.32 98.39 7.32 98.39 11.11 88.29 11.11 88.29 16.23 96.89 16.23 96.89 20.02 88.29 20.02 88.29 25.32 98.39 25.32 98.39 29.12 84.03 29.12"/>
    <path class="cls-1" d="M117.18,29.12l-4.26-8.7h-3.06v8.7h-4.26V7.32h8.55c4.44,0,7.07,3.03,7.07,6.68,0,3.06-1.87,4.96-3.98,5.73l4.87,9.4h-4.93ZM113.88,11.11h-4.01v5.76h4.01c1.87,0,3.09-1.19,3.09-2.88s-1.23-2.88-3.09-2.88"/>
    <path class="cls-1" d="M3.26,53.06c-1.35,0-2.39-.29-3.26-1.18l1.13-1.13c.57.57,1.33.75,2.16.75,1.03,0,1.58-.39,1.58-1.1,0-.31-.09-.58-.27-.75-.18-.16-.38-.25-.79-.31l-1.08-.15c-.77-.11-1.33-.35-1.73-.74-.43-.43-.64-1.01-.64-1.76,0-1.6,1.18-2.71,3.12-2.71,1.23,0,2.13.3,2.89,1.04l-1.1,1.09c-.57-.54-1.24-.62-1.83-.62-.93,0-1.38.51-1.38,1.13,0,.23.08.47.27.64.18.16.46.3.83.35l1.06.15c.81.11,1.33.34,1.71.69.48.45.69,1.1.69,1.9,0,1.73-1.44,2.71-3.32,2.71"/>
    <rect class="cls-1" x="9.49" y="44.05" width="1.75" height="8.94"/>
    <path class="cls-1" d="M17.04,53.06c-1.35,0-2.38-.29-3.27-1.18l1.13-1.13c.57.57,1.33.75,2.16.75,1.03,0,1.58-.39,1.58-1.1,0-.31-.09-.58-.27-.75-.18-.16-.38-.25-.79-.31l-1.08-.15c-.77-.11-1.33-.35-1.73-.74-.43-.43-.64-1.01-.64-1.76,0-1.6,1.18-2.71,3.12-2.71,1.23,0,2.12.3,2.89,1.04l-1.1,1.09c-.56-.54-1.24-.62-1.83-.62-.93,0-1.38.51-1.38,1.13,0,.23.08.47.26.64.18.16.46.3.83.35l1.06.15c.82.11,1.33.34,1.71.69.48.45.69,1.1.69,1.9,0,1.73-1.45,2.71-3.32,2.71"/>
    <polygon class="cls-1" points="26.69 45.61 26.69 52.99 24.94 52.99 24.94 45.61 22.6 45.61 22.6 44.05 29.02 44.05 29.02 45.61 26.69 45.61"/>
    <polygon class="cls-1" points="31.7 52.99 31.7 44.05 37.6 44.05 37.6 45.61 33.45 45.61 33.45 47.7 36.98 47.7 36.98 49.26 33.45 49.26 33.45 51.43 37.6 51.43 37.6 52.99 31.7 52.99"/>
    <polygon class="cls-1" points="46.92 52.99 46.92 47.78 45.21 51.17 44.03 51.17 42.31 47.78 42.31 52.99 40.57 52.99 40.57 44.05 42.29 44.05 44.62 48.88 46.95 44.05 48.67 44.05 48.67 52.99 46.92 52.99"/>
    <path class="cls-1" d="M61.82,52.99l-.65-.78c-.41.33-1.03.85-2.31.85-1.97,0-2.95-1.03-2.95-2.71,0-1.14.83-1.88,1.61-2.4-.37-.42-.89-1.04-.89-1.9,0-1.22.89-2.09,2.39-2.09,1.41,0,2.29.89,2.29,2.11,0,.69-.36,1.15-.92,1.56,0,0-.42.31-.64.47l1.51,1.78c.29-.39.43-.93.45-1.57h1.54c-.06,1.16-.33,2.07-.95,2.77l1.61,1.9h-2.07ZM58.39,48.96c-.54.38-.9.73-.9,1.37,0,.74.6,1.26,1.35,1.26.53,0,.92-.16,1.33-.53l-1.78-2.1ZM59.01,45.37c-.49,0-.74.31-.74.73,0,.33.27.64.59,1.01l.38-.25c.29-.2.51-.44.51-.75,0-.42-.27-.73-.74-.73"/>
    <path class="cls-1" d="M76.28,52.14c-.59.59-1.43.85-2.36.85h-3.23v-8.94h3.23c.93,0,1.77.26,2.36.85,1.01,1.01.9,2.24.9,3.58,0,1.34.1,2.65-.9,3.65M75.06,46.16c-.3-.37-.7-.55-1.31-.55h-1.32v5.83h1.32c.6,0,1-.19,1.31-.55.33-.4.38-1.04.38-2.4s-.05-1.92-.38-2.32"/>
    <polygon class="cls-1" points="80.23 52.99 80.23 44.05 86.12 44.05 86.12 45.61 81.97 45.61 81.97 47.7 85.5 47.7 85.5 49.26 81.97 49.26 81.97 51.43 86.12 51.43 86.12 52.99 80.23 52.99"/>
    <path class="cls-1" d="M91.55,53.06c-1.36,0-2.39-.29-3.27-1.18l1.13-1.13c.57.57,1.33.75,2.16.75,1.03,0,1.58-.39,1.58-1.1,0-.31-.09-.58-.27-.75-.18-.16-.38-.25-.79-.31l-1.08-.15c-.77-.11-1.33-.35-1.73-.74-.43-.43-.64-1.01-.64-1.76,0-1.6,1.18-2.71,3.11-2.71,1.23,0,2.13.3,2.89,1.04l-1.11,1.09c-.57-.54-1.24-.62-1.83-.62-.93,0-1.38.51-1.38,1.13,0,.23.07.47.27.64.17.16.46.3.83.35l1.05.15c.82.11,1.33.34,1.71.69.48.45.69,1.1.69,1.9,0,1.73-1.44,2.71-3.32,2.71"/>
    <rect class="cls-1" x="97.78" y="44.05" width="1.75" height="8.94"/>
    <path class="cls-1" d="M108.38,52.05c-.72.74-1.57,1.02-2.53,1.02s-1.78-.35-2.41-.98c-.9-.9-.88-2.02-.88-3.56s-.02-2.66.88-3.57c.63-.63,1.41-.98,2.41-.98,2.07,0,3.13,1.36,3.37,2.86h-1.76c-.2-.84-.71-1.3-1.61-1.3-.48,0-.86.19-1.12.48-.34.38-.43.79-.43,2.51s.09,2.15.43,2.52c.25.29.64.46,1.12.46.53,0,.96-.19,1.24-.5.29-.33.4-.73.4-1.19v-.34h-1.65v-1.46h3.38v1.31c0,1.29-.23,2.07-.85,2.73"/>
    <polygon class="cls-1" points="117.56 52.99 114.02 47.5 114.02 52.99 112.27 52.99 112.27 44.05 113.83 44.05 117.37 49.53 117.37 44.05 119.12 44.05 119.12 52.99 117.56 52.99"/>
  </g>
</svg>